<?xml version="1.0" encoding="UTF-8"?>
<svg version="1.1" xmlns="http://www.w3.org/2000/svg" width="226" height="190">
<path d="M0 0 C74.58 0 149.16 0 226 0 C226 62.7 226 125.4 226 190 C151.42 190 76.84 190 0 190 C0 127.3 0 64.6 0 0 Z " fill="#F0FAFD" transform="translate(0,0)"/>
<path d="M0 0 C2.47923801 -0.02685095 4.9581884 -0.04676547 7.4375 -0.0625 C8.14455078 -0.07087891 8.85160156 -0.07925781 9.58007812 -0.08789062 C11.38693559 -0.09653588 13.19387603 -0.05220011 15 0 C16 1 16 1 16.16015625 4.46875 C15.96024841 18.73518886 11.46946161 32.43424788 5 45 C4.19755859 46.58361328 4.19755859 46.58361328 3.37890625 48.19921875 C-5.11475763 63.78112012 -17.36211268 76.25066835 -34 83 C-36.33017132 83.67763598 -38.66326063 84.34537185 -41 85 C-40.31983826 85.00364563 -39.63967651 85.00729126 -38.93890381 85.01104736 C-31.86598419 85.05282558 -24.79371632 85.12213871 -17.72119141 85.20751953 C-15.0809582 85.23576253 -12.44063992 85.25696038 -9.80029297 85.27099609 C-6.0070428 85.29237856 -2.21481921 85.33900791 1.578125 85.390625 C3.35174408 85.39246796 3.35174408 85.39246796 5.16119385 85.39434814 C6.26203308 85.41406677 7.36287231 85.4337854 8.49707031 85.45410156 C9.94935028 85.46742523 9.94935028 85.46742523 11.43096924 85.48101807 C14.84574494 86.1708529 15.99547228 87.16251613 18 90 C18.48101807 93.06256104 18.48101807 93.06256104 18.45410156 96.69628906 C18.4545837 97.37079983 18.45506584 98.04531059 18.45556259 98.74026108 C18.45258539 100.91592594 18.42216866 103.09020659 18.390625 105.265625 C18.38474115 106.6118097 18.3806621 107.95800353 18.37841797 109.30419922 C18.35747775 114.2862727 18.30163249 119.26815007 18.25 124.25 C18.1675 135.3875 18.085 146.525 18 158 C-21.93 158 -61.86 158 -103 158 C-103 154.04 -103 150.08 -103 146 C-97.72 145.67 -92.44 145.34 -87 145 C-88.98 143.68 -90.96 142.36 -93 141 C-105.01137068 131.62481887 -114.01285474 118.37528557 -116 103 C-117.07833582 90.53726635 -113.34328335 80.3369318 -107.9375 69.3125 C-107.5971875 68.61672852 -107.256875 67.92095703 -106.90625 67.20410156 C-105.20832033 63.87926457 -104.16267788 62.10845192 -101 60 C-98.5480957 59.77294922 -98.5480957 59.77294922 -95.67578125 59.8046875 C-94.13374023 59.81435547 -94.13374023 59.81435547 -92.56054688 59.82421875 C-90.95276367 59.84935547 -90.95276367 59.84935547 -89.3125 59.875 C-88.22904297 59.88402344 -87.14558594 59.89304688 -86.02929688 59.90234375 C-83.3526429 59.9259266 -80.67643203 59.95883874 -78 60 C-79.60976705 63.35121419 -81.52553143 66.0614859 -83.8125 69 C-91.68460669 79.85461706 -94.47916516 89.74229749 -93 103 C-91.39474206 109.62595831 -88.38620249 113.92277059 -84 119 C-83.98541748 118.10692139 -83.97083496 117.21384277 -83.95581055 116.29370117 C-83.89472923 112.97782722 -83.82057522 109.66278101 -83.73754883 106.34741211 C-83.70430999 104.91295372 -83.67627465 103.47836487 -83.65356445 102.04370117 C-83.61999729 99.98039193 -83.56768587 97.91827697 -83.51171875 95.85546875 C-83.48553467 94.61434326 -83.45935059 93.37321777 -83.43237305 92.09448242 C-83 89 -83 89 -81.92382812 87.08984375 C-78.96218928 85.41208286 -76.01454956 85.63221043 -72.70703125 85.70703125 C-71.64798836 85.71339851 -71.64798836 85.71339851 -70.56755066 85.71989441 C-68.31547697 85.73666966 -66.06430258 85.77431757 -63.8125 85.8125 C-62.28451815 85.82754843 -60.75652224 85.84123656 -59.22851562 85.85351562 C-55.48505303 85.88401641 -51.74353144 85.94273351 -48 86 C-48 77.42 -48 68.84 -48 60 C-44.04 58.68 -40.08 57.36 -36 56 C-20.90433124 48.09274494 -12.0705571 35.78344845 -6 20 C-4.84866257 15.64136544 -5.05750922 12.39829033 -6 8 C-5.38125 7.608125 -4.7625 7.21625 -4.125 6.8125 C-1.66180129 4.71153639 -1.0891733 2.99767966 0 0 Z " fill="#68D6EF" transform="translate(146,25)"/>
<path d="M0 0 C5.54968892 3.80129135 9.05749876 7.99729746 12 14 C12.495 14.99 12.495 14.99 13 16 C13.88786396 24.72643436 13.21969827 31.78376714 8 39 C4.78013433 42.45704328 1.35967332 45.13526844 -3 47 C-3.99 47 -4.98 47 -6 47 C-6 49.31 -6 51.62 -6 54 C-15.57 54 -25.14 54 -35 54 C-33.02 51.36 -31.04 48.72 -29 46 C-28.34 45.01 -27.68 44.02 -27 43 C-27.5775 42.773125 -28.155 42.54625 -28.75 42.3125 C-33.40891377 39.5948003 -35.76892166 35.27463155 -37.453125 30.296875 C-39.27360696 22.65085078 -38.47416831 16.13380807 -34.61328125 9.29296875 C-26.30846002 -2.510736 -13.08290009 -6.46153704 0 0 Z " fill="#072C35" transform="translate(104,31)"/>
<path d="M0 0 C2.47923801 -0.02685095 4.9581884 -0.04676547 7.4375 -0.0625 C8.14455078 -0.07087891 8.85160156 -0.07925781 9.58007812 -0.08789062 C11.38693559 -0.09653588 13.19387603 -0.05220011 15 0 C16 1 16 1 16.16015625 4.46875 C15.96024841 18.73518886 11.46946161 32.43424788 5 45 C4.46503906 46.05574219 3.93007812 47.11148438 3.37890625 48.19921875 C-5.54386595 64.56833322 -18.93588345 78.07786442 -36.96484375 83.96875 C-44.12123843 86 -44.12123843 86 -48 86 C-48 77.42 -48 68.84 -48 60 C-44.04 58.68 -40.08 57.36 -36 56 C-20.90433124 48.09274494 -12.0705571 35.78344845 -6 20 C-4.84866257 15.64136544 -5.05750922 12.39829033 -6 8 C-5.38125 7.608125 -4.7625 7.21625 -4.125 6.8125 C-1.66180129 4.71153639 -1.0891733 2.99767966 0 0 Z " fill="#072C35" transform="translate(146,25)"/>
<path d="M0 0 C1.54204102 0.00966797 1.54204102 0.00966797 3.11523438 0.01953125 C4.18708984 0.03628906 5.25894531 0.05304688 6.36328125 0.0703125 C7.44673828 0.07933594 8.53019531 0.08835937 9.64648438 0.09765625 C12.32313835 0.1212391 14.99934922 0.15415124 17.67578125 0.1953125 C16.0660142 3.54652669 14.15024982 6.2567984 11.86328125 9.1953125 C3.98640719 20.05650314 1.20824911 29.9326622 2.67578125 43.1953125 C3.6725992 47.4665939 4.84555532 51.5078551 8.14990234 54.55444336 C12.11550091 58.34586524 13.098105 61.05262285 13.26171875 66.56640625 C13.222119 68.92259146 13.15096794 71.27842521 13.05078125 73.6328125 C13.01017578 75.44555664 13.01017578 75.44555664 12.96875 77.29492188 C12.89834718 80.26357431 12.79991558 83.22850197 12.67578125 86.1953125 C1.99347016 83.12550467 -6.90555826 74.34192452 -12.23828125 64.75390625 C-18.9885053 51.6576837 -22.97117441 39.65147686 -18.82421875 24.9453125 C-17.01913845 19.60770946 -14.73881748 14.5595514 -12.26171875 9.5078125 C-11.75125 8.46415527 -11.75125 8.46415527 -11.23046875 7.39941406 C-8.34978677 1.75854556 -6.32688922 -0.06991038 0 0 Z " fill="#082D36" transform="translate(50.32421875,84.8046875)"/>
<path d="M0 0 C1.24112549 0.02094727 2.48225098 0.04189453 3.76098633 0.06347656 C4.42262283 0.06913635 5.08425934 0.07479614 5.76594543 0.08062744 C7.8757109 0.10298909 9.9837671 0.15317785 12.09301758 0.20410156 C13.52463364 0.22416717 14.95627638 0.24241784 16.38793945 0.25878906 C19.89498424 0.29945045 23.39834218 0.37772025 26.90551758 0.45410156 C26.90551758 9.03410156 26.90551758 17.61410156 26.90551758 26.45410156 C23.47532227 26.52757812 23.47532227 26.52757812 19.97583008 26.60253906 C17.76498783 26.65652447 15.5542554 26.71384141 13.34350586 26.77148438 C11.80517736 26.80980457 10.26675833 26.84465212 8.72827148 26.87597656 C6.51879481 26.92156215 4.30994309 26.97956496 2.10083008 27.04003906 C1.06637253 27.05736588 1.06637253 27.05736588 0.01101685 27.07504272 C-3.98649783 27.10361178 -3.98649783 27.10361178 -7.09448242 29.45410156 C-7.46794911 32.65948559 -7.46794911 32.65948559 -7.50854492 36.43066406 C-7.52791107 37.11591156 -7.54727722 37.80115906 -7.56723022 38.50717163 C-7.62705073 40.697688 -7.67341998 42.88825686 -7.71948242 45.07910156 C-7.75766005 46.56349958 -7.79671166 48.04787541 -7.83666992 49.53222656 C-7.93275326 53.17264841 -8.01677524 56.81323592 -8.09448242 60.45410156 C-11.7394208 57.65523025 -13.89778411 55.58205929 -15.84448242 51.39160156 C-16.25182617 50.534375 -16.65916992 49.67714844 -17.07885742 48.79394531 C-20.72411901 40.39582342 -20.41276861 29.62661523 -17.09448242 21.14160156 C-14.18209555 15.04223135 -10.25794608 9.74988797 -6.09448242 4.45410156 C-5.70236572 3.75317383 -5.31024902 3.05224609 -4.90625 2.33007812 C-3.09448242 0.45410156 -3.09448242 0.45410156 0 0 Z " fill="#EAF6F9" transform="translate(71.094482421875,84.5458984375)"/>
<path d="M0 0 C14.12903226 0 14.12903226 0 18 3 C19.60515367 5.27144387 20.76682357 7.48621728 22 10 C22.53625 9.360625 23.0725 8.72125 23.625 8.0625 C26.49029628 5.57421639 28.24095376 5.15995941 32 5 C32.99 5.66 33.98 6.32 35 7 C34.58105469 7.34675781 34.16210938 7.69351563 33.73046875 8.05078125 C31.30843784 10.77898311 29.8792693 13.92639563 28.3125 17.1875 C27.99216797 17.84169922 27.67183594 18.49589844 27.34179688 19.16992188 C26.55571708 20.77727907 25.77711317 22.38828858 25 24 C22.9754262 22.06745228 21.57894208 20.36841312 20 18 C19.38125 18.804375 18.7625 19.60875 18.125 20.4375 C16 23 16 23 14 24 C9.33091139 24.13996069 4.67201378 24.04247285 0 24 C0 16.08 0 8.16 0 0 Z " fill="#EBF4F7" transform="translate(10,79)"/>
<path d="M0 0 C2.50390625 0.51171875 2.50390625 0.51171875 5.19140625 2.51171875 C5.62453125 3.17171875 6.05765625 3.83171875 6.50390625 4.51171875 C6.83390625 3.19171875 7.16390625 1.87171875 7.50390625 0.51171875 C15.09390625 0.51171875 22.68390625 0.51171875 30.50390625 0.51171875 C30.50390625 0.84171875 30.50390625 1.17171875 30.50390625 1.51171875 C29.02643165 1.87287921 27.5468595 2.22546923 26.06640625 2.57421875 C25.24269531 2.77144531 24.41898438 2.96867187 23.5703125 3.171875 C22.54744141 3.34009766 22.54744141 3.34009766 21.50390625 3.51171875 C21.00890625 3.01671875 21.00890625 3.01671875 20.50390625 2.51171875 C16.87195984 2.32022794 16.87195984 2.32022794 13.50390625 3.51171875 C13.50390625 2.85171875 13.50390625 2.19171875 13.50390625 1.51171875 C12.18390625 1.51171875 10.86390625 1.51171875 9.50390625 1.51171875 C9.50390625 6.79171875 9.50390625 12.07171875 9.50390625 17.51171875 C10.82390625 17.51171875 12.14390625 17.51171875 13.50390625 17.51171875 C13.50390625 13.55171875 13.50390625 9.59171875 13.50390625 5.51171875 C14.82390625 5.18171875 16.14390625 4.85171875 17.50390625 4.51171875 C18.50390625 5.51171875 18.50390625 5.51171875 18.6015625 8.234375 C18.58996094 9.33652344 18.57835937 10.43867187 18.56640625 11.57421875 C18.55738281 12.67894531 18.54835937 13.78367187 18.5390625 14.921875 C18.52746094 15.77652344 18.51585937 16.63117188 18.50390625 17.51171875 C19.82390625 17.51171875 21.14390625 17.51171875 22.50390625 17.51171875 C22.50390625 13.88171875 22.50390625 10.25171875 22.50390625 6.51171875 C23.82390625 5.85171875 25.14390625 5.19171875 26.50390625 4.51171875 C28.50390625 6.51171875 28.50390625 6.51171875 28.69921875 9.11328125 C28.67601562 10.11101562 28.6528125 11.10875 28.62890625 12.13671875 C28.61085937 13.13960937 28.5928125 14.1425 28.57421875 15.17578125 C28.55101562 15.94664063 28.5278125 16.7175 28.50390625 17.51171875 C29.82390625 17.51171875 31.14390625 17.51171875 32.50390625 17.51171875 C32.50390625 12.89171875 32.50390625 8.27171875 32.50390625 3.51171875 C32.83390625 3.51171875 33.16390625 3.51171875 33.50390625 3.51171875 C33.50390625 8.46171875 33.50390625 13.41171875 33.50390625 18.51171875 C31.19390625 18.51171875 28.88390625 18.51171875 26.50390625 18.51171875 C26.50390625 14.55171875 26.50390625 10.59171875 26.50390625 6.51171875 C25.84390625 6.51171875 25.18390625 6.51171875 24.50390625 6.51171875 C24.50390625 10.47171875 24.50390625 14.43171875 24.50390625 18.51171875 C22.19390625 18.51171875 19.88390625 18.51171875 17.50390625 18.51171875 C17.50390625 14.55171875 17.50390625 10.59171875 17.50390625 6.51171875 C16.51390625 6.51171875 15.52390625 6.51171875 14.50390625 6.51171875 C14.50390625 10.47171875 14.50390625 14.43171875 14.50390625 18.51171875 C12.19390625 18.51171875 9.88390625 18.51171875 7.50390625 18.51171875 C7.00890625 16.53171875 7.00890625 16.53171875 6.50390625 14.51171875 C5.98828125 15.15109375 5.47265625 15.79046875 4.94140625 16.44921875 C1.69582213 19.19548224 -0.25901829 19.58477178 -4.49609375 19.51171875 C-6.89543601 18.08366384 -8.4960776 16.5117349 -10.49609375 14.51171875 C-11.17671875 15.15109375 -11.85734375 15.79046875 -12.55859375 16.44921875 C-16.02424608 18.88254911 -18.28275105 19.43369389 -22.49609375 19.51171875 C-24.20703125 18.015625 -24.20703125 18.015625 -25.49609375 16.51171875 C-24.77164063 15.94324219 -24.0471875 15.37476562 -23.30078125 14.7890625 C-16.80891209 9.69126082 -16.80891209 9.69126082 -11.49609375 3.44921875 C-8.3569741 -0.4976276 -4.78930131 -0.29322253 0 0 Z " fill="#EFF8FB" transform="translate(149.49609375,84.48828125)"/>
<path d="M0 0 C1.08667969 0.02707031 2.17335938 0.05414063 3.29296875 0.08203125 C4.54013672 0.13423828 4.54013672 0.13423828 5.8125 0.1875 C5.89960289 3.29148978 5.95292309 6.39516548 6 9.5 C6.02513672 10.38107422 6.05027344 11.26214844 6.07617188 12.16992188 C6.08583984 13.01748047 6.09550781 13.86503906 6.10546875 14.73828125 C6.1211792 15.51856689 6.13688965 16.29885254 6.15307617 17.1027832 C5.71990201 19.75430588 4.93736616 20.58488567 2.8125 22.1875 C-1.17837164 23.22217042 -3.32355183 23.57351939 -7.125 21.875 C-7.805625 21.318125 -8.48625 20.76125 -9.1875 20.1875 C-9.1875 19.5275 -9.1875 18.8675 -9.1875 18.1875 C-5.8875 18.1875 -2.5875 18.1875 0.8125 18.1875 C0.8125 17.1975 0.8125 16.2075 0.8125 15.1875 C-0.074375 15.455625 -0.96125 15.72375 -1.875 16 C-5.1875 16.1875 -5.1875 16.1875 -8.125 14.25 C-10.55618314 10.6400614 -10.51812311 9.18675348 -9.875 5.0546875 C-7.99254344 -0.05789339 -5.10202435 -0.16458143 0 0 Z " fill="#F0F9FC" transform="translate(85.1875,85.8125)"/>
<path d="M0 0 C2.98095703 -0.34057617 2.98095703 -0.34057617 6.7578125 -0.29296875 C7.42086395 -0.28872391 8.08391541 -0.28447906 8.76705933 -0.28010559 C10.88678441 -0.26329971 13.00556188 -0.22564701 15.125 -0.1875 C16.56118419 -0.17245549 17.99738328 -0.15876668 19.43359375 -0.14648438 C22.95638874 -0.11593991 26.47713269 -0.0572307 30 0 C30 8.58 30 17.16 30 26 C29.67 26 29.34 26 29 26 C29 17.75 29 9.5 29 1 C21.08 1 13.16 1 5 1 C5 6.61 5 12.22 5 18 C2.69 18 0.38 18 -2 18 C-2.33 17.34 -2.66 16.68 -3 16 C-3.7425 16.495 -4.485 16.99 -5.25 17.5 C-8 19 -8 19 -12 19 C-10.72213547 14.44095205 -9.04535156 11.4232569 -6 7.8125 C-3.85536758 5.24603731 -1.85731759 2.78597639 0 0 Z " fill="#D4DFE3" transform="translate(68,85)"/>
<path d="M0 0 C6.6 0 13.2 0 20 0 C20 3.63 20 7.26 20 11 C13.4 11 6.8 11 0 11 C0 7.37 0 3.74 0 0 Z " fill="#16A6C6" transform="translate(43,171)"/>
<path d="M0 0 C7.59 0 15.18 0 23 0 C23 0.33 23 0.66 23 1 C21.5225254 1.36116046 20.04295325 1.71375048 18.5625 2.0625 C17.73878906 2.25972656 16.91507813 2.45695312 16.06640625 2.66015625 C15.04353516 2.82837891 15.04353516 2.82837891 14 3 C13.67 2.67 13.34 2.34 13 2 C9.36805359 1.80850919 9.36805359 1.80850919 6 3 C6 2.34 6 1.68 6 1 C4.68 1 3.36 1 2 1 C2 6.28 2 11.56 2 17 C3.32 17 4.64 17 6 17 C6 13.04 6 9.08 6 5 C7.32 4.67 8.64 4.34 10 4 C11 5 11 5 11.09765625 7.72265625 C11.08605469 8.82480469 11.07445312 9.92695312 11.0625 11.0625 C11.05347656 12.16722656 11.04445312 13.27195312 11.03515625 14.41015625 C11.02355469 15.26480469 11.01195312 16.11945313 11 17 C12.32 17 13.64 17 15 17 C15 13.37 15 9.74 15 6 C16.32 5.34 17.64 4.68 19 4 C21 6 21 6 21.1953125 8.6015625 C21.17210937 9.59929687 21.14890625 10.59703125 21.125 11.625 C21.10695312 12.62789062 21.08890625 13.63078125 21.0703125 14.6640625 C21.04710937 15.43492188 21.02390625 16.20578125 21 17 C22.32 17 23.64 17 25 17 C25 12.38 25 7.76 25 3 C25.33 3 25.66 3 26 3 C26 7.95 26 12.9 26 18 C23.69 18 21.38 18 19 18 C19 14.04 19 10.08 19 6 C18.34 6 17.68 6 17 6 C17 9.96 17 13.92 17 18 C14.69 18 12.38 18 10 18 C10 14.04 10 10.08 10 6 C9.01 6 8.02 6 7 6 C7 9.96 7 13.92 7 18 C4.69 18 2.38 18 0 18 C-0.33 16.68 -0.66 15.36 -1 14 C-1.99 14.495 -1.99 14.495 -3 15 C-3 10.66666667 -3 6.33333333 -3 2 C-2.34 2.66 -1.68 3.32 -1 4 C-0.67 2.68 -0.34 1.36 0 0 Z " fill="#E0EAED" transform="translate(157,85)"/>
<path d="M0 0 C2.875 2.0625 2.875 2.0625 5 5 C5 8.54361243 4.65850044 10.86591591 2.875 13.9375 C-0.18452459 15.6712306 -2.56817525 15.42145216 -6 15 C-8.4375 13.4375 -8.4375 13.4375 -10 11 C-10.5625 7.5 -10.5625 7.5 -10 4 C-6.99746894 0.65432253 -4.50513222 -1.01365475 0 0 Z " fill="#ECF9FD" transform="translate(116,130)"/>
<path d="M0 0 C7.59 0 15.18 0 23 0 C21.43108518 3.13782964 19.97689907 5.50839252 17.875 8.25 C17.33617188 8.95640625 16.79734375 9.6628125 16.2421875 10.390625 C15.83226562 10.92171875 15.42234375 11.4528125 15 12 C8.25 10.25 8.25 10.25 6 8 C5.8125 5.4375 5.8125 5.4375 6 3 C6.33 2.67 6.66 2.34 7 2 C4.69 1.67 2.38 1.34 0 1 C0 0.67 0 0.34 0 0 Z " fill="#22434B" transform="translate(45,85)"/>
<path d="M0 0 C0.66 0.66 1.32 1.32 2 2 C1.91238174 5.52225405 1.25063563 6.75450561 -1.28515625 9.23828125 C-2.65994141 10.26501953 -2.65994141 10.26501953 -4.0625 11.3125 C-4.98160156 12.00988281 -5.90070313 12.70726563 -6.84765625 13.42578125 C-7.55792969 13.94527344 -8.26820312 14.46476562 -9 15 C-11.86761722 12.55834184 -11.98678474 12.11893737 -12.4375 8.0625 C-12.30435084 5.17050017 -12.03106851 4.05178086 -10.5 1.5 C-6.78559093 -0.72864544 -4.29911397 -0.41604329 0 0 Z " fill="#204149" transform="translate(134,86)"/>
<path d="M0 0 C2.8666886 2.75880247 3.92336883 4.3463361 4.390625 8.33203125 C4.32101563 10.05486328 4.32101563 10.05486328 4.25 11.8125 C4.21390625 12.97394531 4.1778125 14.13539062 4.140625 15.33203125 C4.07101563 16.65267578 4.07101563 16.65267578 4 18 C2.35 18 0.7 18 -1 18 C-1.33 14.04 -1.66 10.08 -2 6 C-3.32 6.33 -4.64 6.66 -6 7 C-6.33 10.63 -6.66 14.26 -7 18 C-7.33 18 -7.66 18 -8 18 C-8 12.39 -8 6.78 -8 1 C-5.12529507 -0.43735246 -3.18105412 -0.38172649 0 0 Z " fill="#1C3D45" transform="translate(106,84)"/>
<path d="M0 0 C2.29633824 3.44450737 2.54016485 5.93812283 3 10 C2.34 10 1.68 10 1 10 C0.1646875 10.9590625 0.1646875 10.9590625 -0.6875 11.9375 C-3.7587326 14.67670746 -5.93351935 14.92606399 -10 15 C-11.71484375 13.50390625 -11.71484375 13.50390625 -13 12 C-12.22914062 11.38511719 -11.45828125 10.77023438 -10.6640625 10.13671875 C-9.66117187 9.32847656 -8.65828125 8.52023438 -7.625 7.6875 C-6.62726563 6.88699219 -5.62953125 6.08648437 -4.6015625 5.26171875 C-1.86519247 3.08378314 -1.86519247 3.08378314 0 0 Z " fill="#EBF4F7" transform="translate(137,89)"/>
<path d="M0 0 C1.32 0 2.64 0 4 0 C4 5.28 4 10.56 4 16 C2.68 16 1.36 16 0 16 C0 10.72 0 5.44 0 0 Z " fill="#F2FBFE" transform="translate(68,86)"/>
<path d="M0 0 C2.125 0.375 2.125 0.375 4 1 C4.625 3.8125 4.625 3.8125 5 7 C4.01 8.485 4.01 8.485 3 10 C-0.875 9.125 -0.875 9.125 -2 8 C-2.1875 5.0625 -2.1875 5.0625 -2 2 C-1.34 1.34 -0.68 0.68 0 0 Z " fill="#E1EAED" transform="translate(82,89)"/>
<path d="M0 0 C2.5 2.25 2.5 2.25 5 5 C5 6.32 5 7.64 5 9 C1.7 9 -1.6 9 -5 9 C-3.35 6.03 -1.7 3.06 0 0 Z " fill="#22434A" transform="translate(43,86)"/>
<path d="M0 0 C2.29633824 3.44450737 2.54016485 5.93812283 3 10 C2.34 10 1.68 10 1 10 C0.01 11.485 0.01 11.485 -1 13 C-1.66 12.67 -2.32 12.34 -3 12 C-2.01 10.35 -1.02 8.7 0 7 C-1.32 7 -2.64 7 -4 7 C-4.33 7.99 -4.66 8.98 -5 10 C-6.32 9.67 -7.64 9.34 -9 9 C-8.51789063 8.60167969 -8.03578125 8.20335938 -7.5390625 7.79296875 C-6.90742188 7.26316406 -6.27578125 6.73335938 -5.625 6.1875 C-4.99851563 5.66542969 -4.37203125 5.14335938 -3.7265625 4.60546875 C-1.7778952 2.91774261 -1.7778952 2.91774261 0 0 Z " fill="#DAE5E8" transform="translate(137,89)"/>
<path d="M0 0 C1.875 0.25 1.875 0.25 4 1 C5.25 3.0625 5.25 3.0625 6 5 C1.25 9 1.25 9 -1 9 C-1.625 6.1875 -1.625 6.1875 -2 3 C-1.34 2.01 -0.68 1.02 0 0 Z " fill="#0B2E37" transform="translate(128,89)"/>
<path d="M0 0 C0.680625 0.680625 1.36125 1.36125 2.0625 2.0625 C4.94633751 4.3889842 4.94633751 4.3889842 8.8125 3.75 C9.864375 3.5025 10.91625 3.255 12 3 C11.67 4.65 11.34 6.3 11 8 C7.7 7.67 4.4 7.34 1 7 C0.67 7.66 0.34 8.32 0 9 C0 8.01 0 7.02 0 6 C0.66 5.67 1.32 5.34 2 5 C1.34 4.34 0.68 3.68 0 3 C0 2.01 0 1.02 0 0 Z " fill="#E0E9EC" transform="translate(75,97)"/>
<path d="M0 0 C0.33 0.99 0.66 1.98 1 3 C5.455 2.505 5.455 2.505 10 2 C9.34 3.32 8.68 4.64 8 6 C4.7 6 1.4 6 -2 6 C-1.34 4.02 -0.68 2.04 0 0 Z " fill="#22434B" transform="translate(37,96)"/>
<path d="M0 0 C1.98 0 3.96 0 6 0 C5.525625 0.86625 5.05125 1.7325 4.5625 2.625 C3.06765105 5.85387374 2.41781687 8.49033826 2 12 C1.34 12 0.68 12 0 12 C0 8.04 0 4.08 0 0 Z " fill="#E6F0F3" transform="translate(73,86)"/>
<path d="M0 0 C2.00720923 0.28674418 4.0085944 0.61866701 6 1 C4.35 2.98 2.7 4.96 1 7 C0.01 6.34 -0.98 5.68 -2 5 C-1.125 1.125 -1.125 1.125 0 0 Z " fill="#E2ECEF" transform="translate(68,78)"/>
<path d="M0 0 C2.54926402 1.27463201 2.86801636 2.43417043 4 5 C5.09658936 8.28976808 4.79953138 9.71303767 4 13 C3.01 13 2.02 13 1 13 C0.67 8.71 0.34 4.42 0 0 Z " fill="#E1EBEE" transform="translate(28,84)"/>
<path d="M0 0 C3.53571429 0.53571429 3.53571429 0.53571429 5 2 C4.71269945 4.33944736 4.38063221 6.6739143 4 9 C3.67 9 3.34 9 3 9 C3 6.69 3 4.38 3 2 C-0.0109362 4.0072908 -0.63016497 4.83884224 -2 8 C-2.125 5.125 -2.125 5.125 -2 2 C-1.34 1.34 -0.68 0.68 0 0 Z " fill="#E2EBEE" transform="translate(146,89)"/>
<path d="M0 0 C0.66 0.33 1.32 0.66 2 1 C2 2.98 2 4.96 2 7 C0.68 7 -0.64 7 -2 7 C-2.125 4.625 -2.125 4.625 -2 2 C-1.34 1.34 -0.68 0.68 0 0 Z " fill="#F0FAFD" transform="translate(83,90)"/>
<path d="M0 0 C0.99386719 0.02707031 1.98773438 0.05414063 3.01171875 0.08203125 C4.15060547 0.13423828 4.15060547 0.13423828 5.3125 0.1875 C5.6425 0.8475 5.9725 1.5075 6.3125 2.1875 C5.72082031 2.14109375 5.12914062 2.0946875 4.51953125 2.046875 C0.18803196 1.84902511 -2.01903944 1.75095433 -5.75 4.1875 C-6.7090625 5.1775 -6.7090625 5.1775 -7.6875 6.1875 C-8.0175 5.1975 -8.3475 4.2075 -8.6875 3.1875 C-6.10291354 -0.17334451 -4.11082043 -0.14508778 0 0 Z " fill="#DBE5E8" transform="translate(146.6875,84.8125)"/>
<path d="M0 0 C1.32 0.66 2.64 1.32 4 2 C3.67 2.99 3.34 3.98 3 5 C1.68 5 0.36 5 -1 5 C-0.67 3.35 -0.34 1.7 0 0 Z " fill="#1B3D45" transform="translate(115,97)"/>
<path d="M0 0 C2.31 0.33 4.62 0.66 7 1 C6.67 1.99 6.34 2.98 6 4 C4.35 3.67 2.7 3.34 1 3 C0.67 2.01 0.34 1.02 0 0 Z " fill="#204149" transform="translate(51,98)"/>
<path d="M0 0 C2.38564077 0.57584432 4.66682784 1.22227595 7 2 C7 2.66 7 3.32 7 4 C4.69 3.67 2.38 3.34 0 3 C0 2.01 0 1.02 0 0 Z " fill="#0B2D35" transform="translate(56,89)"/>
</svg>
